<?xml version="1.0" encoding="UTF-8" standalone="no"?>
<svg
   height="31.999985"
   viewBox="0 -960 10559.996 1279.9994"
   width="263.99988"
   version="1.1"
   id="svg1"
   sodipodi:docname="dh-logo.svg"
   inkscape:version="1.3.2 (091e20e, 2023-11-25, custom)"
   xmlns:inkscape="http://www.inkscape.org/namespaces/inkscape"
   xmlns:sodipodi="http://sodipodi.sourceforge.net/DTD/sodipodi-0.dtd"
   xmlns="http://www.w3.org/2000/svg"
   xmlns:svg="http://www.w3.org/2000/svg">
  <defs
     id="defs1" />
  <sodipodi:namedview
     id="namedview1"
     pagecolor="#ffffff"
     bordercolor="#000000"
     borderopacity="0.25"
     inkscape:showpageshadow="2"
     inkscape:pageopacity="0.0"
     inkscape:pagecheckerboard="0"
     inkscape:deskcolor="#d1d1d1"
     inkscape:zoom="0.97968464"
     inkscape:cx="145.96534"
     inkscape:cy="9.696998"
     inkscape:window-width="1450"
     inkscape:window-height="921"
     inkscape:window-x="221"
     inkscape:window-y="28"
     inkscape:window-maximized="0"
     inkscape:current-layer="svg1" />
  <path
     d="m 1198.0829,-326.15526 q 0,51.39281 -12.8826,98.50289 -12.8826,47.11008 -35.4272,89.93743 l -99.8402,-85.6547 q 9.6619,-24.26882 14.4929,-49.25144 4.831,-24.98262 4.831,-53.53418 0,-67.09619 -28.1807,-127.05447 -28.1807,-59.95827 -84.54212,-107.06835 L 682.77847,-800.11122 541.06973,-677.33949 450.8915,-757.28387 682.77847,-960 1046.7123,-643.07762 q 70.8543,59.95829 111.1125,142.04402 40.2581,82.08576 40.2581,174.87834 z M 1185.2003,216.32445 985.51985,39.30475 q -66.02338,41.39977 -141.70873,63.52723 -75.68535,22.12747 -161.03265,22.12747 -214.17347,0 -364.73897,-132.05099 -150.5655,-132.05098 -150.5655,-319.06372 0,-72.80649 25.7652,-139.90266 25.7652,-67.09618 77.2957,-128.48205 L 0,-834.3731 90.1783,-914.3175 1275.3786,136.38007 Z M 682.77847,10.75318 q 57.97175,0 110.30737,-14.27577 52.33561,-14.27578 99.03508,-39.97219 L 360.7132,-511.74043 q -33.8169,45.68251 -49.115,91.365 -15.2981,45.68251 -15.2981,94.22017 0,139.90265 112.7229,238.40555 112.7228,98.50289 273.75547,98.50289 z M 623.19638,-280.47277 Z M 800.3323,-446.07183 Z"
     id="path1"
     style="fill:#2a2a2a;fill-opacity:1;stroke:none;stroke-width:1.51621;stroke-opacity:1" />
  <text
     xml:space="preserve"
     style="font-style:normal;font-variant:normal;font-weight:normal;font-stretch:normal;font-size:1224.85px;font-family:Arial;-inkscape-font-specification:'Arial, Normal';font-variant-ligatures:normal;font-variant-caps:normal;font-variant-numeric:normal;font-variant-east-asian:normal;letter-spacing:-76.5532px;fill:#2a2a2a;stroke-width:38.2766"
     x="1379.2869"
     y="75.431419"
     id="text1"
     transform="scale(1.0412524,0.96038195)"><tspan
       sodipodi:role="line"
       id="tspan1"
       style="font-style:normal;font-variant:normal;font-weight:normal;font-stretch:normal;font-size:1224.85px;font-family:Arial;-inkscape-font-specification:'Arial, Normal';font-variant-ligatures:normal;font-variant-caps:normal;font-variant-numeric:normal;font-variant-east-asian:normal;letter-spacing:-76.5532px;stroke-width:38.2766"
       x="1379.2869"
       y="75.431419">Dehydrated Water</tspan></text>
</svg>
