<?xml version="1.0" encoding="UTF-8" standalone="no"?>
<svg
   height="20"
   viewBox="0 -960 800 800"
   width="20"
   version="1.1"
   id="svg1"
   sodipodi:docname="dh-logo.svg"
   inkscape:version="1.3.2 (091e20e, 2023-11-25, custom)"
   xmlns:inkscape="http://www.inkscape.org/namespaces/inkscape"
   xmlns:sodipodi="http://sodipodi.sourceforge.net/DTD/sodipodi-0.dtd"
   xmlns="http://www.w3.org/2000/svg"
   xmlns:svg="http://www.w3.org/2000/svg">
  <defs
     id="defs1" />
  <sodipodi:namedview
     id="namedview1"
     pagecolor="#ffffff"
     bordercolor="#000000"
     borderopacity="0.25"
     inkscape:showpageshadow="2"
     inkscape:pageopacity="0.0"
     inkscape:pagecheckerboard="0"
     inkscape:deskcolor="#d1d1d1"
     inkscape:zoom="8.3986679"
     inkscape:cx="10.715985"
     inkscape:cy="9.9420528"
     inkscape:window-width="1450"
     inkscape:window-height="921"
     inkscape:window-x="221"
     inkscape:window-y="28"
     inkscape:window-maximized="0"
     inkscape:current-layer="svg1" />
  <path
     d="m 751.51515,-528.93204 q 0,34.95146 -8.08081,66.99029 -8.0808,32.03884 -22.22222,61.16505 l -62.62626,-58.25243 q 6.0606,-16.50485 9.09091,-33.49514 3.0303,-16.99029 3.0303,-36.40777 0,-45.63107 -17.67677,-86.40777 Q 635.35354,-656.1165 600,-688.15534 l -171.71717,-163.1068 -88.88889,83.49515 -56.56566,-54.36893 L 428.28283,-960 656.56566,-744.46602 q 44.44444,40.7767 69.69697,96.60194 25.25252,55.82525 25.25252,118.93204 z M 743.43434,-160 618.18182,-280.38835 q -41.41414,28.15534 -88.88889,43.20388 -47.47475,15.04855 -101.0101,15.04855 -134.34344,0 -228.78788,-89.80583 -94.44444,-89.80582 -94.44444,-216.99029 0,-49.51456 16.16161,-95.14563 16.16162,-45.63107 48.48485,-87.37864 L 0,-874.56311 56.56566,-928.93204 800,-214.36893 Z M 428.28283,-299.80583 q 36.36363,0 69.19192,-9.70873 32.82828,-9.70874 62.12121,-27.18447 l -333.33333,-318.4466 q -21.21212,31.06796 -30.80808,62.13592 -9.59596,31.06796 -9.59596,64.07767 0,95.14563 70.70707,162.13592 70.70707,66.99029 171.71717,66.99029 z M 390.90909,-497.86408 Z M 502.0202,-610.48544 Z"
     id="path1"
     style="fill:#2a2a2a;fill-opacity:1;stroke:none;stroke-width:0.990295;stroke-opacity:1" />
</svg>
